/* XPM */
static char * grexic32_xpm[] = {
"32 32 142 2",
"  	c None",
". 	c #000000",
"+ 	c #B2B2B2",
"@ 	c #FFFFFF",
"# 	c #FEFEFE",
"$ 	c #FDFDFD",
"% 	c #FCFCFC",
"& 	c #D3D3D3",
"* 	c #848484",
"= 	c #515151",
"- 	c #3A3A3A",
"; 	c #2E2E2E",
"> 	c #3E3E3E",
", 	c #606060",
"' 	c #979797",
") 	c #E7E7E7",
"! 	c #F6F6F6",
"~ 	c #DEDEDE",
"{ 	c #4B4B4B",
"] 	c #060606",
"^ 	c #9E9E9E",
"/ 	c #ABABAB",
"( 	c #767676",
"_ 	c #0C0C0C",
": 	c #434343",
"< 	c #D8D8D8",
"[ 	c #EEEEEE",
"} 	c #FBFBFB",
"| 	c #CCCCCC",
"1 	c #111111",
"2 	c #090909",
"3 	c #A4A4A4",
"4 	c #B1B1B1",
"5 	c #B7B7B7",
"6 	c #7C7C7C",
"7 	c #4A4A4A",
"8 	c #ACACAC",
"9 	c #D6D6D6",
"0 	c #F4F4F4",
"a 	c #EAEAEA",
"b 	c #161616",
"c 	c #535353",
"d 	c #7D7D7D",
"e 	c #8E8E8E",
"f 	c #AFAFAF",
"g 	c #CBCBCB",
"h 	c #D5D5D5",
"i 	c #CACACA",
"j 	c #5D5D5D",
"k 	c #949494",
"l 	c #C7C7C7",
"m 	c #F0F0F0",
"n 	c #696969",
"o 	c #101010",
"p 	c #666666",
"q 	c #787878",
"r 	c #A9A9A9",
"s 	c #EDEDED",
"t 	c #ECECEC",
"u 	c #626262",
"v 	c #A1A1A1",
"w 	c #F2F2F2",
"x 	c #F1F1F1",
"y 	c #0A0A0A",
"z 	c #2F2F2F",
"A 	c #616161",
"B 	c #929292",
"C 	c #FAFAFA",
"D 	c #C1C1C1",
"E 	c #DDDDDD",
"F 	c #F7F7F7",
"G 	c #414141",
"H 	c #6F6F6F",
"I 	c #E4E4E4",
"J 	c #F5F5F5",
"K 	c #E6E6E6",
"L 	c #E2E2E2",
"M 	c #EFEFEF",
"N 	c #010101",
"O 	c #505050",
"P 	c #818181",
"Q 	c #C5C5C5",
"R 	c #F9F9F9",
"S 	c #F3F3F3",
"T 	c #676767",
"U 	c #575757",
"V 	c #919191",
"W 	c #D4D4D4",
"X 	c #C4C4C4",
"Y 	c #1D1D1D",
"Z 	c #0F0F0F",
"` 	c #131313",
" .	c #5C5C5C",
"..	c #9C9C9C",
"+.	c #DCDCDC",
"@.	c #494949",
"#.	c #AEAEAE",
"$.	c #E0E0E0",
"%.	c #080808",
"&.	c #A2A2A2",
"*.	c #252525",
"=.	c #838383",
"-.	c #DADADA",
";.	c #595959",
">.	c #DFDFDF",
",.	c #F8F8F8",
"'.	c #E1E1E1",
").	c #555555",
"!.	c #808080",
"~.	c #BDBDBD",
"{.	c #E9E9E9",
"].	c #727272",
"^.	c #323232",
"/.	c #A5A5A5",
"(.	c #5B5B5B",
"_.	c #909090",
":.	c #D1D1D1",
"<.	c #636363",
"[.	c #383838",
"}.	c #868686",
"|.	c #9F9F9F",
"1.	c #030303",
"2.	c #343434",
"3.	c #686868",
"4.	c #D2D2D2",
"5.	c #989898",
"6.	c #717171",
"7.	c #6B6B6B",
"8.	c #858585",
"9.	c #EBEBEB",
"0.	c #B3B3B3",
"a.	c #A0A0A0",
"b.	c #A3A3A3",
"c.	c #B0B0B0",
"d.	c #A8A8A8",
"e.	c #9A9A9A",
"f.	c #B6B6B6",
"g.	c #8C8C8C",
"h.	c #0B0B0B",
"i.	c #C0C0C0",
"j.	c #262626",
"k.	c #E5E5E5",
". . . . . . . . . . . . . . . . . . . . . . . . . . . . . . . . ",
". + + + + + + + + + + + + + + + + + + + + + + + + + + + + + + . ",
". + . . . . . . . . . . . . . . . . . . . . . . . . . . . . + . ",
". + . @ @ @ @ @ @ @ @ @ @ @ @ @ @ @ @ @ @ @ @ @ @ @ @ @ @ . + . ",
". + . @ @ @ @ @ @ < !.).: j.: T 5.I x @ @ @ @ @ @ @ @ @ @ . + . ",
". + . @ @ @ @ < { . . T v + ( _ . : < x @ @ @ @ @ @ @ @ @ . + . ",
". + . @ @ @ | _ . _ !.v v + + !.. { + < x @ @ @ @ @ @ @ @ . + . ",
". + . @ @ I b . . ).!.}.+ | < | _ ).5.| x @ @ @ @ @ @ @ @ . + . ",
". + . @ @ T . . _ T ( + < x x x T 5.v | x @ @ @ @ @ @ @ @ . + . ",
". + . @ x _ . . 2.T }.| x @ @ @ I | i.< x @ @ @ @ @ @ @ @ . + . ",
". + . @ + . . . : ( + I @ @ @ @ x I I x @ @ @ @ @ @ @ @ @ . + . ",
". + . @ !.. . . { !.i.x @ @ @ @ x x x @ @ @ @ @ @ @ @ @ @ . + . ",
". + . @ T . . _ ).}.< i.b . _ b b j.I x @ @ @ @ @ @ @ @ @ . + . ",
". + . @ ( . . _ ).5.< x x { . . { + i.I x @ @ @ @ @ @ @ @ . + . ",
". + . @ 5.. . _ T v I x x j.. . { !.+ < x @ @ @ @ @ @ @ @ . + . ",
". + . @ < . . . ).v I x I . . . ).!.i.I @ @ @ @ @ @ @ @ @ . + . ",
". + . @ x ( . . 2.5.< x v . . b ).}.< x @ @ @ @ @ @ @ @ @ . + . ",
". + . @ @ I T . . 2.}.v 2.. . 2.T v I @ @ @ @ @ @ @ @ @ @ . + . ",
". + . @ @ x < 5.).: 2.{ ).( ( T !.i.I @ @ @ @ @ @ @ @ @ @ . + . ",
". + . @ @ @ x < + v v + + + 5.5.+ < x . . . . . }.@ @ @ @ . + . ",
". + . @ @ @ @ x I < | | | | | < I x @ . . . . }.@ @ @ @ @ . + . ",
". + . @ @ @ @ @ @ x x x x x x x @ @ @ . . . _ i.@ @ @ @ @ . + . ",
". + . @ @ @ @ @ @ @ @ @ @ @ @ @ @ @ @ . . _ . _ i.@ @ @ @ . + . ",
". + . @ @ @ @ @ @ @ @ @ @ @ @ @ @ @ @ . }.i._ . _ i.@ @ @ . + . ",
". + . @ @ @ @ @ @ @ @ @ @ @ @ @ @ @ @ }.@ @ i._ . _ i.@ @ . + . ",
". + . @ @ @ @ @ @ @ @ @ @ @ @ @ @ @ @ @ @ @ @ i._ . _ i.@ . + . ",
". + . @ @ @ @ @ @ @ @ @ @ @ @ @ @ @ @ @ @ @ @ @ i._ j.I @ . + . ",
". + . @ @ @ @ @ @ @ @ @ @ @ @ @ @ @ @ @ @ @ @ @ @ i.I @ @ . + . ",
". + . @ @ @ @ @ @ @ @ @ @ @ @ @ @ @ @ @ @ @ @ @ @ @ @ @ @ . + . ",
". + . . . . . . . . . . . . . . . . . . . . . . . . . . . . + . ",
". + + + + + + + + + + + + + + + + + + + + + + + + + + + + + + . ",
". . . . . . . . . . . . . . . . . . . . . . . . . . . . . . . . "};
