/* XPM */
static char * grexic48_xpm[] = {
"48 48 187 2",
"  	c None",
". 	c #000000",
"+ 	c #AAAAAA",
"@ 	c #FFFFFF",
"# 	c #FEFEFE",
"$ 	c #FDFDFD",
"% 	c #FCFCFC",
"& 	c #FBFBFB",
"* 	c #F8F8F8",
"= 	c #CFCFCF",
"- 	c #989898",
"; 	c #717171",
"> 	c #5D5D5D",
", 	c #454545",
"' 	c #494949",
") 	c #5B5B5B",
"! 	c #6F6F6F",
"~ 	c #9A9A9A",
"{ 	c #C7C7C7",
"] 	c #F0F0F0",
"^ 	c #F5F5F5",
"/ 	c #EBEBEB",
"( 	c #8F8F8F",
"_ 	c #2D2D2D",
": 	c #090909",
"< 	c #080808",
"[ 	c #272727",
"} 	c #3A3A3A",
"| 	c #151515",
"1 	c #333333",
"2 	c #ACACAC",
"3 	c #E9E9E9",
"4 	c #F1F1F1",
"5 	c #B6B6B6",
"6 	c #232323",
"7 	c #414141",
"8 	c #9E9E9E",
"9 	c #C0C0C0",
"0 	c #BFBFBF",
"a 	c #B1B1B1",
"b 	c #5C5C5C",
"c 	c #010101",
"d 	c #5E5E5E",
"e 	c #CECECE",
"f 	c #DEDEDE",
"g 	c #EEEEEE",
"h 	c #F9F9F9",
"i 	c #898989",
"j 	c #020202",
"k 	c #636363",
"l 	c #A8A8A8",
"m 	c #A3A3A3",
"n 	c #A5A5A5",
"o 	c #ABABAB",
"p 	c #B5B5B5",
"q 	c #B3B3B3",
"r 	c #4A4A4A",
"s 	c #6C6C6C",
"t 	c #C5C5C5",
"u 	c #DFDFDF",
"v 	c #F3F3F3",
"w 	c #909090",
"x 	c #060606",
"y 	c #8B8B8B",
"z 	c #9F9F9F",
"A 	c #AFAFAF",
"B 	c #BCBCBC",
"C 	c #C3C3C3",
"D 	c #C1C1C1",
"E 	c #A2A2A2",
"F 	c #737373",
"G 	c #949494",
"H 	c #B2B2B2",
"I 	c #D4D4D4",
"J 	c #FAFAFA",
"K 	c #D2D2D2",
"L 	c #070707",
"M 	c #141414",
"N 	c #767676",
"O 	c #777777",
"P 	c #7F7F7F",
"Q 	c #DBDBDB",
"R 	c #DADADA",
"S 	c #252525",
"T 	c #0F0F0F",
"U 	c #848484",
"V 	c #8E8E8E",
"W 	c #ECECEC",
"X 	c #434343",
"Y 	c #686868",
"Z 	c #707070",
"` 	c #8A8A8A",
" .	c #CACACA",
"..	c #E0E0E0",
"+.	c #EFEFEF",
"@.	c #E6E6E6",
"#.	c #565656",
"$.	c #323232",
"%.	c #B0B0B0",
"&.	c #030303",
"*.	c #0B0B0B",
"=.	c #575757",
"-.	c #616161",
";.	c #7A7A7A",
">.	c #C4C4C4",
",.	c #E1E1E1",
"'.	c #B9B9B9",
").	c #646464",
"!.	c #222222",
"~.	c #676767",
"{.	c #8C8C8C",
"].	c #D9D9D9",
"^.	c #C9C9C9",
"/.	c #D1D1D1",
"(.	c #E5E5E5",
"_.	c #F2F2F2",
":.	c #1E1E1E",
"<.	c #343434",
"[.	c #A0A0A0",
"}.	c #E8E8E8",
"|.	c #F6F6F6",
"1.	c #DCDCDC",
"2.	c #E4E4E4",
"3.	c #818181",
"4.	c #D8D8D8",
"5.	c #F4F4F4",
"6.	c #EDEDED",
"7.	c #F7F7F7",
"8.	c #4E4E4E",
"9.	c #656565",
"0.	c #E2E2E2",
"a.	c #9B9B9B",
"b.	c #505050",
"c.	c #6D6D6D",
"d.	c #121212",
"e.	c #1D1D1D",
"f.	c #E3E3E3",
"g.	c #525252",
"h.	c #747474",
"i.	c #7D7D7D",
"j.	c #797979",
"k.	c #A9A9A9",
"l.	c #D6D6D6",
"m.	c #2C2C2C",
"n.	c #9C9C9C",
"o.	c #BABABA",
"p.	c #ADADAD",
"q.	c #B7B7B7",
"r.	c #3F3F3F",
"s.	c #787878",
"t.	c #212121",
"u.	c #050505",
"v.	c #585858",
"w.	c #7E7E7E",
"x.	c #AEAEAE",
"y.	c #727272",
"z.	c #7C7C7C",
"A.	c #666666",
"B.	c #B8B8B8",
"C.	c #181818",
"D.	c #171717",
"E.	c #555555",
"F.	c #C6C6C6",
"G.	c #474747",
"H.	c #969696",
"I.	c #2B2B2B",
"J.	c #5A5A5A",
"K.	c #595959",
"L.	c #191919",
"M.	c #4C4C4C",
"N.	c #858585",
"O.	c #7B7B7B",
"P.	c #404040",
"Q.	c #161616",
"R.	c #101010",
"S.	c #202020",
"T.	c #292929",
"U.	c #C2C2C2",
"V.	c #E7E7E7",
"W.	c #D0D0D0",
"X.	c #B4B4B4",
"Y.	c #868686",
"Z.	c #A1A1A1",
"`.	c #D5D5D5",
" +	c #A6A6A6",
".+	c #9D9D9D",
"++	c #CBCBCB",
". . . . . . . . . . . . . . . . . . . . . . . . . . . . . . . . . . . . . . . . . . . . . . . . ",
". + + + + + + + + + + + + + + + + + + + + + + + + + + + + + + + + + + + + + + + + + + + + + + . ",
". + + + + + + + + + + + + + + + + + + + + + + + + + + + + + + + + + + + + + + + + + + + + + + . ",
". + + . . . . . . . . . . . . . . . . . . . . . . . . . . . . . . . . . . . . . . . . . . + + . ",
". + + . @ @ @ @ @ @ @ @ @ @ @ @ @ @ @ @ @ @ @ @ @ @ @ @ @ @ @ @ @ @ @ @ @ @ @ @ @ @ @ @ . + + . ",
". + + . @ @ @ @ @ @ @ @ @ @ @ @ @ @ @ @ @ @ @ @ @ @ @ @ @ @ @ @ @ @ @ @ @ @ @ @ @ @ @ @ . + + . ",
". + + . @ @ @ @ @ @ @ @ @ @ 4 ++- y.v.r.M.v.y.- ++4 4 4 @ @ @ @ @ @ @ @ @ @ @ @ @ @ @ @ . + + . ",
". + + . @ @ @ @ @ @ @ @ (.V I.T . T [ r.r.C.. . T <.+ (.4 4 @ @ @ @ @ @ @ @ @ @ @ @ @ @ . + + . ",
". + + . @ @ @ @ @ @ @ H [ . . . r.[.D 0 0 H v.. . . v.++4.4 @ @ @ @ @ @ @ @ @ @ @ @ @ @ . + + . ",
". + + . @ @ @ @ @ @ V . . . . ~.+ m m + H H H M.. . ~.+ D (.4 @ @ @ @ @ @ @ @ @ @ @ @ @ . + + . ",
". + + . @ @ @ @ @ V . . . . r.V V V [.H 0 D D [.. . y.- H I 4 @ @ @ @ @ @ @ @ @ @ @ @ @ . + + . ",
". + + . @ @ @ @ I T . . . C.y.y.P - H D I 4.4.++[ T P V + ++4 @ @ @ @ @ @ @ @ @ @ @ @ @ . + + . ",
". + + . @ @ @ 4 r.. . . . r.~.y.V + ++(.4 4 4 (.E.<.- - H I 4 @ @ @ @ @ @ @ @ @ @ @ @ @ . + + . ",
". + + . @ @ @ D . . . . T E.~.P [.D (.4 4 @ @ 4 I 0 H + 0 4.4 @ @ @ @ @ @ @ @ @ @ @ @ @ . + + . ",
". + + . @ @ @ ~.. . . . [ E.~.V H 4.4 @ @ @ @ @ 4 4.++D I (.4 @ @ @ @ @ @ @ @ @ @ @ @ @ . + + . ",
". + + . @ @ 4 C.. . . . <.E.y.[.++(.4 @ @ @ @ @ 4 (.(.4.(.4 @ @ @ @ @ @ @ @ @ @ @ @ @ @ . + + . ",
". + + . @ @ ++T . . . . r.v.P H 4.4 @ @ @ @ @ @ @ 4 4 4 4 4 @ @ @ @ @ @ @ @ @ @ @ @ @ @ . + + . ",
". + + . @ @ H . . . . . M.~.V 0 (.4 @ @ @ @ 4 4 4 4 4 4 4 @ @ @ @ @ @ @ @ @ @ @ @ @ @ @ . + + . ",
". + + . @ @ - . . . . T M.y.- ++(.[.. . . T C.C.C.C.[ (.4 4 @ @ @ @ @ @ @ @ @ @ @ @ @ @ . + + . ",
". + + . @ @ - . . . . T E.y.m I 4 (.+ P T . . . T v.V I (.4 4 @ @ @ @ @ @ @ @ @ @ @ @ @ . + + . ",
". + + . @ @ + . . . . T E.P + I 4 4 4 I T . . . I.- + 0 ++(.4 @ @ @ @ @ @ @ @ @ @ @ @ @ . + + . ",
". + + . @ @ ++T . . . T E.P + 4.4 4 4 H . . . . r.y.V + ++(.4 @ @ @ @ @ @ @ @ @ @ @ @ @ . + + . ",
". + + . @ @ (.[ . . . . v.P + 4.4 @ 4 P . . . . M.~.P + ++(.4 @ @ @ @ @ @ @ @ @ @ @ @ @ . + + . ",
". + + . @ @ 4 y.. . . . M.P + 4.4 @ 4 M.. . . . E.~.V H 4.4 @ @ @ @ @ @ @ @ @ @ @ @ @ @ . + + . ",
". + + . @ @ 4 I [ . . . [ y.m I 4 4 4 C.. . . C.E.y.- D (.4 @ @ @ @ @ @ @ @ @ @ @ @ @ @ . + + . ",
". + + . @ @ @ 4 H C.. . . M.- D (.4 H . . . . I.v.y.m I 4 @ @ @ @ @ @ @ @ @ @ @ @ @ @ @ . + + . ",
". + + . @ @ @ 4 (.[.<.. . . [ v.P y.[ . . . C.M.~.P H 4.4 @ @ @ @ @ @ @ @ @ @ @ @ @ @ @ . + + . ",
". + + . @ @ @ @ 4 I H P r.[ C.T T [ I.r.v.y.y.~.y.- D (.4 @ @ @ @ @ @ @ @ @ @ @ @ @ @ @ . + + . ",
". + + . @ @ @ @ 4 (.I H - V V V - + H H [.V P P - H I 4 0 P P P P P P P P (.@ @ @ @ @ @ . + + . ",
". + + . @ @ @ @ @ 4 (.I D H m m + H H H + [.- m 0 I (.4 P . . . . . . . V @ @ @ @ @ @ @ . + + . ",
". + + . @ @ @ @ @ @ 4 4 (.I ++D D D D D D D ++++4.(.4 @ P . . . . . . V @ @ @ @ @ @ @ @ . + + . ",
". + + . @ @ @ @ @ @ @ @ 4 4 (.(.(.(.(.(.(.(.(.(.4 4 @ @ P . . . . . P @ @ @ @ @ @ @ @ @ . + + . ",
". + + . @ @ @ @ @ @ @ @ @ @ 4 4 4 4 4 4 4 4 4 @ @ @ @ @ P . . . . . [ I @ @ @ @ @ @ @ @ . + + . ",
". + + . @ @ @ @ @ @ @ @ @ @ @ @ @ @ @ @ @ @ @ @ @ @ @ @ P . . . . . . C.I @ @ @ @ @ @ @ . + + . ",
". + + . @ @ @ @ @ @ @ @ @ @ @ @ @ @ @ @ @ @ @ @ @ @ @ @ P . . P [ . . . [ I @ @ @ @ @ @ . + + . ",
". + + . @ @ @ @ @ @ @ @ @ @ @ @ @ @ @ @ @ @ @ @ @ @ @ @ P . V @ I C.. . . [ I @ @ @ @ @ . + + . ",
". + + . @ @ @ @ @ @ @ @ @ @ @ @ @ @ @ @ @ @ @ @ @ @ @ @ P V @ @ @ I [ . . . C.I @ @ @ @ . + + . ",
". + + . @ @ @ @ @ @ @ @ @ @ @ @ @ @ @ @ @ @ @ @ @ @ @ @ (.@ @ @ @ @ I [ . . . [ I @ @ @ . + + . ",
". + + . @ @ @ @ @ @ @ @ @ @ @ @ @ @ @ @ @ @ @ @ @ @ @ @ @ @ @ @ @ @ @ I C.. . . [ (.@ @ . + + . ",
". + + . @ @ @ @ @ @ @ @ @ @ @ @ @ @ @ @ @ @ @ @ @ @ @ @ @ @ @ @ @ @ @ @ I [ . . v.4 @ @ . + + . ",
". + + . @ @ @ @ @ @ @ @ @ @ @ @ @ @ @ @ @ @ @ @ @ @ @ @ @ @ @ @ @ @ @ @ @ I [ v.4 @ @ @ . + + . ",
". + + . @ @ @ @ @ @ @ @ @ @ @ @ @ @ @ @ @ @ @ @ @ @ @ @ @ @ @ @ @ @ @ @ @ @ (.4 @ @ @ @ . + + . ",
". + + . @ @ @ @ @ @ @ @ @ @ @ @ @ @ @ @ @ @ @ @ @ @ @ @ @ @ @ @ @ @ @ @ @ @ @ @ @ @ @ @ . + + . ",
". + + . @ @ @ @ @ @ @ @ @ @ @ @ @ @ @ @ @ @ @ @ @ @ @ @ @ @ @ @ @ @ @ @ @ @ @ @ @ @ @ @ . + + . ",
". + + . . . . . . . . . . . . . . . . . . . . . . . . . . . . . . . . . . . . . . . . . . + + . ",
". + + + + + + + + + + + + + + + + + + + + + + + + + + + + + + + + + + + + + + + + + + + + + + . ",
". + + + + + + + + + + + + + + + + + + + + + + + + + + + + + + + + + + + + + + + + + + + + + + . ",
". . . . . . . . . . . . . . . . . . . . . . . . . . . . . . . . . . . . . . . . . . . . . . . . "};
