/* XPM */
static char * grexic32lc_xpm[] = {
"32 32 5 1",
" 	c None",
".	c #000000",
"+	c #C0C0C0",
"@	c #FFFFFF",
"#	c #808080",
"................................",
".++++++++++++++++++++++++++++++.",
".+............................+.",
".+.@@@@@@@@@@@@@@@@@@@@@@@@@@.+.",
".+.@@@@@@+##...##@@@@@@@@@@@@.+.",
".+.@@@@+#..#++#...+@@@@@@@@@@.+.",
".+.@@@+...#++++#.#++@@@@@@@@@.+.",
".+.@@@...###++++.##+@@@@@@@@@.+.",
".+.@@#...##++@@@##++@@@@@@@@@.+.",
".+.@@....##+@@@@@+++@@@@@@@@@.+.",
".+.@+....#+@@@@@@@@@@@@@@@@@@.+.",
".+.@#...##+@@@@@@@@@@@@@@@@@@.+.",
".+.@#...##++......@@@@@@@@@@@.+.",
".+.@#...##+@@#..#++@@@@@@@@@@.+.",
".+.@#...#+@@@...##++@@@@@@@@@.+.",
".+.@+...#+@@@...##+@@@@@@@@@@.+.",
".+.@@#...#+@+...##+@@@@@@@@@@.+.",
".+.@@@#...#+....#+@@@@@@@@@@@.+.",
".+.@@@+##..######+@@@@@@@@@@@.+.",
".+.@@@@+++++++##++@.....#@@@@.+.",
".+.@@@@@@+++++++@@@....#@@@@@.+.",
".+.@@@@@@@@@@@@@@@@....+@@@@@.+.",
".+.@@@@@@@@@@@@@@@@.....+@@@@.+.",
".+.@@@@@@@@@@@@@@@@.#+...+@@@.+.",
".+.@@@@@@@@@@@@@@@@#@@+...+@@.+.",
".+.@@@@@@@@@@@@@@@@@@@@+...+@.+.",
".+.@@@@@@@@@@@@@@@@@@@@@+..@@.+.",
".+.@@@@@@@@@@@@@@@@@@@@@@+@@@.+.",
".+.@@@@@@@@@@@@@@@@@@@@@@@@@@.+.",
".+............................+.",
".++++++++++++++++++++++++++++++.",
"................................"};
