/* XPM */
static char * grexic16_xpm[] = {
"16 16 67 1",
" 	c None",
".	c #000000",
"+	c #FFFFFF",
"@	c #F6F6F6",
"#	c #878787",
"$	c #4F4F4F",
"%	c #6C6C6C",
"&	c #484848",
"*	c #707070",
"=	c #EEEEEE",
"-	c #FDFDFD",
";	c #F9F9F9",
">	c #3D3D3D",
",	c #171717",
"'	c #8B8B8B",
")	c #B4B4B4",
"!	c #B5B5B5",
"~	c #2E2E2E",
"{	c #B7B7B7",
"]	c #F8F8F8",
"^	c #999999",
"/	c #424242",
"(	c #A0A0A0",
"_	c #EBEBEB",
":	c #A9A9A9",
"<	c #C3C3C3",
"[	c #4A4A4A",
"}	c #606060",
"|	c #D2D2D2",
"1	c #FCFCFC",
"2	c #F1F1F1",
"3	c #EFEFEF",
"4	c #FEFEFE",
"5	c #353535",
"6	c #050505",
"7	c #787878",
"8	c #DADADA",
"9	c #565656",
"0	c #080808",
"a	c #4E4E4E",
"b	c #DFDFDF",
"c	c #FBFBFB",
"d	c #5D5D5D",
"e	c #020202",
"f	c #7F7F7F",
"g	c #7D7D7D",
"h	c #6A6A6A",
"i	c #CDCDCD",
"j	c #D1D1D1",
"k	c #1A1A1A",
"l	c #404040",
"m	c #BCBCBC",
"n	c #121212",
"o	c #7E7E7E",
"p	c #E7E7E7",
"q	c #FAFAFA",
"r	c #CACACA",
"s	c #757575",
"t	c #8A8A8A",
"u	c #858585",
"v	c #E2E2E2",
"w	c #EAEAEA",
"x	c #DEDEDE",
"y	c #DDDDDD",
"z	c #F4F4F4",
"A	c #A2A2A2",
"B	c #A4A4A4",
"................",
".++++++++++++++.",
".+++fffff++++++.",
".++..f<<.<+++++.",
".+f..<++<<+++++.",
".+f.f<+++++++++.",
".+..f<f.f++++++.",
".+f.f+f.f<+++++.",
".+<..<..f++++++.",
".++<ffff<<ff+++.",
".++++<<++f.f+++.",
".++++++++ff.<++.",
".++++++++++<.<+.",
".+++++++++++<<+.",
".++++++++++++++.",
"................"};
