/* XPM */
static char * grexic12_xpm[] = {
"12 12 46 1",
" 	c None",
".	c #000000",
"+	c #C3C3C3",
"@	c #DFDFDF",
"#	c #B7B7B7",
"$	c #818181",
"%	c #7E7E7E",
"&	c #B6B6B6",
"*	c #DDDDDD",
"=	c #8A8A8A",
"-	c #252525",
";	c #9F9F9F",
">	c #A7A7A7",
",	c #494949",
"'	c #E2E2E2",
")	c #FEFEFE",
"!	c #FFFFFF",
"~	c #C2C2C2",
"{	c #040404",
"]	c #565656",
"^	c #D3D3D3",
"/	c #F8F8F8",
"(	c #B9B9B9",
"_	c #E6E6E6",
":	c #8B8B8B",
"<	c #020202",
"[	c #838383",
"}	c #C1C1C1",
"|	c #AAAAAA",
"1	c #F7F7F7",
"2	c #9E9E9E",
"3	c #959595",
"4	c #010101",
"5	c #7F7F7F",
"6	c #EAEAEA",
"7	c #D9D9D9",
"8	c #595959",
"9	c #4C4C4C",
"0	c #727272",
"a	c #242424",
"b	c #999999",
"c	c #F9F9F9",
"d	c #DEDEDE",
"e	c #EEEEEE",
"f	c #BFBFBF",
"g	c #C0C0C0",
"............",
".!!g$$g!!!!.",
".!$.gg$!!!!.",
".g.$g!g!!!!.",
".$.$g$g!!!!.",
".g.$g.$!!!!.",
".g$$$.$!!!!.",
".!!ggg!..!!.",
".!!!!!!..g!.",
".!!!!!!!g.!.",
".!!!!!!!!!!.",
"............"};
