/* XPM */
static char * grflic48_xpm[] = {
"48 48 193 2",
"  	c None",
". 	c #000000",
"+ 	c #B2B2B2",
"@ 	c #B1B1B1",
"# 	c #FFFFFF",
"$ 	c #FEFEFE",
"% 	c #FDFDFD",
"& 	c #F1F1F1",
"* 	c #D5D5D5",
"= 	c #BBBBBB",
"- 	c #AFAFAF",
"; 	c #9B9B9B",
"> 	c #B9B9B9",
", 	c #BEBEBE",
"' 	c #D7D7D7",
") 	c #F3F3F3",
"! 	c #F7F7F7",
"~ 	c #F8F8F8",
"{ 	c #FAFAFA",
"] 	c #FCFCFC",
"^ 	c #F0F0F0",
"/ 	c #ABABAB",
"( 	c #535353",
"_ 	c #1C1C1C",
": 	c #0C0C0C",
"< 	c #010101",
"[ 	c #0A0A0A",
"} 	c #0E0E0E",
"| 	c #040404",
"1 	c #020202",
"2 	c #232323",
"3 	c #686868",
"4 	c #C3C3C3",
"5 	c #EEEEEE",
"6 	c #F4F4F4",
"7 	c #F9F9F9",
"8 	c #A8A8A8",
"9 	c #2C2C2C",
"0 	c #3D3D3D",
"a 	c #909090",
"b 	c #AAAAAA",
"c 	c #989898",
"d 	c #474747",
"e 	c #141414",
"f 	c #E2E2E2",
"g 	c #616161",
"h 	c #0D0D0D",
"i 	c #7D7D7D",
"j 	c #ADADAD",
"k 	c #AEAEAE",
"l 	c #B5B5B5",
"m 	c #5D5D5D",
"n 	c #272727",
"o 	c #C5C5C5",
"p 	c #DDDDDD",
"q 	c #595959",
"r 	c #757575",
"s 	c #979797",
"t 	c #939393",
"u 	c #9A9A9A",
"v 	c #A6A6A6",
"w 	c #BABABA",
"x 	c #171717",
"y 	c #949494",
"z 	c #ACACAC",
"A 	c #CCCCCC",
"B 	c #E8E8E8",
"C 	c #787878",
"D 	c #434343",
"E 	c #818181",
"F 	c #7E7E7E",
"G 	c #898989",
"H 	c #9E9E9E",
"I 	c #B4B4B4",
"J 	c #D0D0D0",
"K 	c #D2D2D2",
"L 	c #CACACA",
"M 	c #5A5A5A",
"N 	c #565656",
"O 	c #888888",
"P 	c #C2C2C2",
"Q 	c #E4E4E4",
"R 	c #CFCFCF",
"S 	c #030303",
"T 	c #101010",
"U 	c #6A6A6A",
"V 	c #6D6D6D",
"W 	c #7B7B7B",
"X 	c #969696",
"Y 	c #B6B6B6",
"Z 	c #E0E0E0",
"` 	c #E9E9E9",
" .	c #EAEAEA",
"..	c #7A7A7A",
"+.	c #8F8F8F",
"@.	c #A1A1A1",
"#.	c #FBFBFB",
"$.	c #343434",
"%.	c #6C6C6C",
"&.	c #E6E6E6",
"*.	c #F2F2F2",
"=.	c #CECECE",
"-.	c #727272",
";.	c #A7A7A7",
">.	c #A2A2A2",
",.	c #DBDBDB",
"'.	c #0B0B0B",
").	c #4C4C4C",
"!.	c #777777",
"~.	c #C6C6C6",
"{.	c #D8D8D8",
"].	c #8C8C8C",
"^.	c #121212",
"/.	c #515151",
"(.	c #636363",
"_.	c #D9D9D9",
":.	c #EBEBEB",
"<.	c #D3D3D3",
"[.	c #E7E7E7",
"}.	c #F5F5F5",
"|.	c #4E4E4E",
"1.	c #212121",
"2.	c #EDEDED",
"3.	c #242424",
"4.	c #2D2D2D",
"5.	c #575757",
"6.	c #797979",
"7.	c #A9A9A9",
"8.	c #151515",
"9.	c #383838",
"0.	c #848484",
"a.	c #DCDCDC",
"b.	c #696969",
"c.	c #5E5E5E",
"d.	c #646464",
"e.	c #F6F6F6",
"f.	c #414141",
"g.	c #8D8D8D",
"h.	c #BFBFBF",
"i.	c #3C3C3C",
"j.	c #0F0F0F",
"k.	c #333333",
"l.	c #E3E3E3",
"m.	c #161616",
"n.	c #444444",
"o.	c #ECECEC",
"p.	c #525252",
"q.	c #828282",
"r.	c #DFDFDF",
"s.	c #EFEFEF",
"t.	c #292929",
"u.	c #454545",
"v.	c #6B6B6B",
"w.	c #999999",
"x.	c #3E3E3E",
"y.	c #A3A3A3",
"z.	c #9C9C9C",
"A.	c #181818",
"B.	c #202020",
"C.	c #656565",
"D.	c #A5A5A5",
"E.	c #2F2F2F",
"F.	c #CBCBCB",
"G.	c #BDBDBD",
"H.	c #5C5C5C",
"I.	c #C9C9C9",
"J.	c #E5E5E5",
"K.	c #3A3A3A",
"L.	c #959595",
"M.	c #5F5F5F",
"N.	c #404040",
"O.	c #8B8B8B",
"P.	c #DEDEDE",
"Q.	c #050505",
"R.	c #666666",
"S.	c #8E8E8E",
"T.	c #E1E1E1",
"U.	c #1D1D1D",
"V.	c #393939",
"W.	c #D4D4D4",
"X.	c #717171",
"Y.	c #B3B3B3",
"Z.	c #606060",
"`.	c #070707",
" +	c #1A1A1A",
".+	c #D1D1D1",
"++	c #919191",
"@+	c #C0C0C0",
"#+	c #929292",
"$+	c #CDCDCD",
"%+	c #C1C1C1",
"&+	c #BCBCBC",
"*+	c #D6D6D6",
"            . . . . . . . . . . . . . . . . . . . . . . . . .                                   ",
"            . + + + + + + + + + + + + + + + + + + + + + + . + .                                 ",
"            . + + + + + + + + + + + + + + + + + + + + + + . + + .                               ",
"            . + + . . . . . . . . . . . . . . . . . . . . . + + . .                             ",
"            . + + . # # # # # # # # # # # # # # # # # # # . + + . # .                           ",
"            . + + . # # # # # # # # # # # # # # # # # # # . + + . # # .                         ",
"            . + + . # # # # # # # # # # # # # # # # # # # . + + . # # # .                       ",
"            . + + . # # # # # # # # # # # # # # # # # # # . + + . # # # # .                     ",
"            . + + . # # # # # # # # # # # # # # # # # # # . + + . # # # # # .                   ",
"            . + + . # # # # # # # # # # # # # # # # # # # . + + . . . . . . . .                 ",
"            . + + . # # # # # # # # # # # # # # # # # # # . + + + + + + + + + + .               ",
"            . + + . # # # # # # # # # # # # # # # # # # # . + + + + + + + + + + + .             ",
"            . + + . # # # # # # # # # # # # # # # # # # # . . . . . . . . . . . . .             ",
"            . + + . # # # # # # # # # # # # # # # # # # # # # # # # # # # # . + + .             ",
"            . + + . # # # # # # # # # # # # # # # # # # # # # # # # # # # # . + + .             ",
"            . + + . # # # # # # # # # # # # & ' @++ w.@+@+' & & & # # # # # . + + .             ",
"            . + + . # # # # # # # # # & + N 8.h . h h . . h n 3 @+& & # # # . + + .             ",
"            . + + . # # # # # # # # + n . . . D O + + w.).. . . 8.' l.& & # . + + .             ",
"            . + + . # # # # # # & 3 . . . h E + + + + + + N . . n + @+' & # . + + .             ",
"            . + + . # # # # # & N . . . . !.w.w.w.@.+ @+@++ 8.. D w.+ A l.# . + + .             ",
"            . + + . # # # # # !.. . . . D E E O @.+ @+' ' A N . N O @.@+l.# . + + .             ",
"            . + + . # # # # A . . . . h 3 !.E w.+ A l.l.l.l.w.. E O @.@+l.# . + + .             ",
"            . + + . # # # # N . . . . $.3 3 O + ' l.& & & & A !.@.@.+ A l.# . + + .             ",
"            . + + . # # # ' h . . . . ).N !.@.@+l.& # # # # & ' @+@+@+' & # . + + .             ",
"            . + + . # # # O . . . . h N 3 O + ' & # # # # # & l.' ' ' l.& # . + + .             ",
"            . + + . # # # ).. . . . n N !.w.@+l.& # # # # # # & & l.l.& # # . + + .             ",
"            . + + . # # # n . . . . n N E + ' & # # # # # # # & & & & & # # . + + .             ",
"            . + + . # # l.8.. . . . $.N E + ' & 3 N N 3 E E E !.!.@+& & # # . + + .             ",
"            . + + . # # l.8.. . . . D 3 O @+l.& N D h . . . . h $.+ l.& & # . + + .             ",
"            . + + . # # l.8.. . . . D 3 w.@+l.& & & N . . . . E + @+A l.& # . + + .             ",
"            . + + . # # & n . . . . D 3 w.A l.& & l.D . . . h E O @.@+' & # . + + .             ",
"            . + + . # # & N . . . . D !.w.A l.& & ' 8.. . . n 3 E w.@+' & # . + + .             ",
"            . + + . # # & @.. . . . $.!.w.A l.& # @+. . . . $.N !.@.A l.& # . + + .             ",
"            . + + . # # # l.D . . . 8.3 w.@+l.& # E . . . . D N E + ' & # # . + + .             ",
"            . + + . # # # & @+8.. . . D O @+' & & D . . . . N 3 O @+l.& # # . + + .             ",
"            . + + . # # # & l.@.8.. . . $.O @+' w.h . . . 8.N !.w.A l.& # # . + + .             ",
"            . + + . # # # # & ' + 3 n h . . . . . . 8.$.N 3 3 E + ' & # # # . + + .             ",
"            . + + . # # # # & l.' + w.E 3 3 3 E w.@.@.O E !.E w.@+l.& # # # . + + .             ",
"            . + + . # # # # # & l.' @+@.w.w.@.+ + + @.w.O O @.@+' & # # # # . + + .             ",
"            . + + . # # # # # # & l.' A @+@+@+@+@+@+@++ + @+A ' l.& # # # # . + + .             ",
"            . + + . # # # # # # # & & l.l.' ' ' ' ' ' ' ' l.l.& & # # # # # . + + .             ",
"            . + + . # # # # # # # # # & & & & & & & & & & & & # # # # # # # . + + .             ",
"            . + + . # # # # # # # # # # # # # # # # # # # # # # # # # # # # . + + .             ",
"            . + + . # # # # # # # # # # # # # # # # # # # # # # # # # # # # . + + .             ",
"            . + + . . . . . . . . . . . . . . . . . . . . . . . . . . . . . . + + .             ",
"            . + + + + + + + + + + + + + + + + + + + + + + + + + + + + + + + + + + .             ",
"            . + + + + + + + + + + + + + + + + + + + + + + + + + + + + + + + + + + .             ",
"            . . . . . . . . . . . . . . . . . . . . . . . . . . . . . . . . . . . .             "};
