/* XPM */
static char * grflic16_xpm[] = {
"16 16 60 1",
" 	c None",
".	c #000000",
"+	c #FFFFFF",
"@	c #FEFEFE",
"#	c #B6B6B6",
"$	c #636363",
"%	c #737373",
"&	c #5D5D5D",
"*	c #797979",
"=	c #F0F0F0",
"-	c #747474",
";	c #070707",
">	c #7D7D7D",
",	c #ADADAD",
"'	c #B5B5B5",
")	c #212121",
"!	c #B3B3B3",
"~	c #C7C7C7",
"{	c #313131",
"]	c #8E8E8E",
"^	c #E0E0E0",
"/	c #F4F4F4",
"(	c #9E9E9E",
"_	c #707070",
":	c #4B4B4B",
"<	c #C0C0C0",
"[	c #FBFBFB",
"}	c #FDFDFD",
"|	c #F2F2F2",
"1	c #E9E9E9",
"2	c #545454",
"3	c #656565",
"4	c #DCDCDC",
"5	c #717171",
"6	c #262626",
"7	c #525252",
"8	c #D7D7D7",
"9	c #6B6B6B",
"0	c #E4E4E4",
"a	c #A3A3A3",
"b	c #585858",
"c	c #D8D8D8",
"d	c #171717",
"e	c #3C3C3C",
"f	c #D0D0D0",
"g	c #5F5F5F",
"h	c #030303",
"i	c #6D6D6D",
"j	c #DBDBDB",
"k	c #666666",
"l	c #5C5C5C",
"m	c #727272",
"n	c #757575",
"o	c #A0A0A0",
"p	c #F1F1F1",
"q	c #FAFAFA",
"r	c #E5E5E5",
"s	c #D5D5D5",
"t	c #D4D4D4",
"u	c #ECECEC",
"  .........     ",
"  .+++++++..    ",
"  .+++++++.+.   ",
"  .+++++++....  ",
"  .++++++++++.  ",
"  .+++<>>>>++.  ",
"  .++>.><<.<+.  ",
"  .+<..>++<<+.  ",
"  .+>.><+++++.  ",
"  .+>.><>.><+.  ",
"  .+>.>+<.><+.  ",
"  .+<..<>.><+.  ",
"  .++<>>>><++.  ",
"  .++++<<<+++.  ",
"  .++++++++++.  ",
"  ............  "};
