/* XPM */
static char * grflic32_xpm[] = {
"32 32 148 2",
"  	c None",
". 	c #000000",
"+ 	c #B2B2B2",
"@ 	c #FFFFFF",
"# 	c #FEFEFE",
"$ 	c #D6D6D6",
"% 	c #9B9B9B",
"& 	c #7D7D7D",
"* 	c #696969",
"= 	c #7B7B7B",
"- 	c #929292",
"; 	c #C5C5C5",
"> 	c #F5F5F5",
", 	c #F8F8F8",
"' 	c #FCFCFC",
") 	c #AEAEAE",
"! 	c #2F2F2F",
"~ 	c #1C1C1C",
"{ 	c #676767",
"] 	c #7F7F7F",
"^ 	c #5B5B5B",
"/ 	c #0A0A0A",
"( 	c #2D2D2D",
"_ 	c #DEDEDE",
": 	c #EFEFEF",
"< 	c #FAFAFA",
"[ 	c #FDFDFD",
"} 	c #666666",
"| 	c #404040",
"1 	c #A6A6A6",
"2 	c #A8A8A8",
"3 	c #AFAFAF",
"4 	c #B6B6B6",
"5 	c #8B8B8B",
"6 	c #010101",
"7 	c #1D1D1D",
"8 	c #D3D3D3",
"9 	c #F1F1F1",
"0 	c #707070",
"a 	c #1F1F1F",
"b 	c #858585",
"c 	c #888888",
"d 	c #A1A1A1",
"e 	c #BCBCBC",
"f 	c #CBCBCB",
"g 	c #C7C7C7",
"h 	c #313131",
"i 	c #353535",
"j 	c #8E8E8E",
"k 	c #E9E9E9",
"l 	c #CACACA",
"m 	c #565656",
"n 	c #949494",
"o 	c #C2C2C2",
"p 	c #E2E2E2",
"q 	c #EEEEEE",
"r 	c #EAEAEA",
"s 	c #6B6B6B",
"t 	c #5D5D5D",
"u 	c #969696",
"v 	c #545454",
"w 	c #121212",
"x 	c #5C5C5C",
"y 	c #7C7C7C",
"z 	c #B7B7B7",
"A 	c #E4E4E4",
"B 	c #F7F7F7",
"C 	c #B5B5B5",
"D 	c #CFCFCF",
"E 	c #F0F0F0",
"F 	c #F4F4F4",
"G 	c #080808",
"H 	c #282828",
"I 	c #5F5F5F",
"J 	c #979797",
"K 	c #D4D4D4",
"L 	c #F6F6F6",
"M 	c #D9D9D9",
"N 	c #E6E6E6",
"O 	c #383838",
"P 	c #6D6D6D",
"Q 	c #B0B0B0",
"R 	c #444444",
"S 	c #EDEDED",
"T 	c #3E3E3E",
"U 	c #474747",
"V 	c #515151",
"W 	c #505050",
"X 	c #F3F3F3",
"Y 	c #FBFBFB",
"Z 	c #4C4C4C",
"` 	c #CDCDCD",
" .	c #151515",
"..	c #919191",
"+.	c #DFDFDF",
"@.	c #C8C8C8",
"#.	c #4D4D4D",
"$.	c #8F8F8F",
"%.	c #6C6C6C",
"&.	c #323232",
"*.	c #838383",
"=.	c #D2D2D2",
"-.	c #F2F2F2",
";.	c #141414",
">.	c #434343",
",.	c #363636",
"'.	c #3A3A3A",
").	c #717171",
"!.	c #AAAAAA",
"~.	c #DCDCDC",
"{.	c #868686",
"].	c #242424",
"^.	c #898989",
"/.	c #CCCCCC",
"(.	c #050505",
"_.	c #4E4E4E",
":.	c #BEBEBE",
"<.	c #ECECEC",
"[.	c #E7E7E7",
"}.	c #5E5E5E",
"|.	c #424242",
"1.	c #A5A5A5",
"2.	c #DDDDDD",
"3.	c #0F0F0F",
"4.	c #8D8D8D",
"5.	c #D5D5D5",
"6.	c #8A8A8A",
"7.	c #3B3B3B",
"8.	c #1B1B1B",
"9.	c #131313",
"0.	c #171717",
"a.	c #272727",
"b.	c #414141",
"c.	c #626262",
"d.	c #A7A7A7",
"e.	c #F9F9F9",
"f.	c #D1D1D1",
"g.	c #ACACAC",
"h.	c #9A9A9A",
"i.	c #ABABAB",
"j.	c #939393",
"k.	c #9F9F9F",
"l.	c #C1C1C1",
"m.	c #C0C0C0",
"n.	c #BDBDBD",
"o.	c #C4C4C4",
"p.	c #EBEBEB",
"q.	c #E8E8E8",
"        . . . . . . . . . . . . . . . . .                       ",
"        . + + + + + + + + + + + + + + . + .                     ",
"        . + . . . . . . . . . . . . . . + . .                   ",
"        . + . @ @ @ @ @ @ @ @ @ @ @ @ . + . @ .                 ",
"        . + . @ @ @ @ @ @ @ @ @ @ @ @ . + . @ @ .               ",
"        . + . @ @ @ @ @ @ @ @ @ @ @ @ . + . @ @ @ .             ",
"        . + . @ @ @ @ @ @ @ @ @ @ @ @ . + . . . . . .           ",
"        . + . @ @ @ @ @ @ @ @ @ @ @ @ . + + + + + + + .         ",
"        . + . @ @ @ @ @ @ @ @ @ @ @ @ . . . . . . . . .         ",
"        . + . @ @ @ @ @ @ @ @ @ @ @ @ @ @ @ @ @ @ . + .         ",
"        . + . @ @ @ @ @ @ @ $ h.] { ] {.m.9 9 @ @ . + .         ",
"        . + . @ @ @ @ @ + i .  .{ ] m 3.. H $ 9 @ . + .         ",
"        . + . @ @ @ @ { . . >.d + + + {..  .+ $ 9 . + .         ",
"        . + . @ @ @ = . .  .] {.d m././.i i {.m.p . + .         ",
"        . + . @ @ /.. . . m = h.m.p 9 p { m h.m.p . + .         ",
"        . + . @ @ m . . 3.m ] + p 9 @ @ p /.+ /.9 . + .         ",
"        . + . @ 9 3.. . H m h.$ 9 @ @ @ 9 p $ p 9 . + .         ",
"        . + . @ m.. . . i = + p @ @ @ @ @ 9 9 9 @ . + .         ",
"        . + . @ + . . . >.] m.9 >.>.Z m Z Z m.9 @ . + .         ",
"        . + . @ + . . . Z {./.9 $ { . .  .{.m.p 9 . + .         ",
"        . + . @ /.. . . Z {.$ 9 9 { . . i ] + $ 9 . + .         ",
"        . + . @ 9  .. . >.{.$ 9 9 i . . >.= + $ 9 . + .         ",
"        . + . @ 9 {.. . H {./.9 9 . . . Z ] m.9 @ . + .         ",
"        . + . @ @ p m . . >.d $ {.. . 3.m {./.9 @ . + .         ",
"        . + . @ @ 9 $ {.>. . . .H >.m { = d p @ @ . + .         ",
"        . + . @ @ @ 9 $ + h.h.+ + + h.{.d /.9 @ @ . + .         ",
"        . + . @ @ @ @ 9 p /.m.m.m.m.m.m.$ p @ @ @ . + .         ",
"        . + . @ @ @ @ @ @ 9 9 p p p p 9 9 @ @ @ @ . + .         ",
"        . + . @ @ @ @ @ @ @ @ @ @ @ @ @ @ @ @ @ @ . + .         ",
"        . + . . . . . . . . . . . . . . . . . . . . + .         ",
"        . + + + + + + + + + + + + + + + + + + + + + + .         ",
"        . . . . . . . . . . . . . . . . . . . . . . . .         "};
