/* XPM */
static char * grflic12_xpm[] = {
"12 12 29 1",
" 	c None",
".	c #000000",
"+	c #FFFFFF",
"@	c #FEFEFE",
"#	c #FBFBFB",
"$	c #EBEBEB",
"%	c #878787",
"&	c #444444",
"*	c #818181",
"=	c #383838",
"-	c #A7A7A7",
";	c #090909",
">	c #7F7F7F",
",	c #DADADA",
"'	c #B5B5B5",
")	c #4F4F4F",
"!	c #1F1F1F",
"~	c #B1B1B1",
"{	c #D5D5D5",
"]	c #D9D9D9",
"^	c #464646",
"/	c #2A2A2A",
"(	c #CECECE",
"_	c #6E6E6E",
":	c #1A1A1A",
"<	c #B4B4B4",
"[	c #9F9F9F",
"}	c #171717",
"|	c #BFBFBF",
"  ......    ",
"  .++++..   ",
"  .++++...  ",
"  .++++++.  ",
"  .+*.*.+.  ",
"  .|.*||+.  ",
"  .*.|||+.  ",
"  .*.|*.|.  ",
"  .|.|*.|.  ",
"  .+|***+.  ",
"  .++++++.  ",
"  ........  "};
