/* XPM */
static char * gric32_xpm[] = {
"32 32 183 2",
"  	c None",
". 	c #040404",
"+ 	c #B2B2B2",
"@ 	c #FFFFFF",
"# 	c #FBFBFB",
"$ 	c #D2D2D2",
"% 	c #AEAEAE",
"& 	c #939393",
"* 	c #929292",
"= 	c #ACACAC",
"- 	c #CCCCCC",
"; 	c #F5F5F5",
"> 	c #FAFAFA",
", 	c #FCFCFC",
"' 	c #FDFDFD",
") 	c #FEFEFE",
"! 	c #B9B9B9",
"~ 	c #585858",
"{ 	c #0E0E0E",
"] 	c #000000",
"^ 	c #070707",
"/ 	c #111111",
"( 	c #0D0D0D",
"_ 	c #535353",
": 	c #BEBEBE",
"< 	c #F2F2F2",
"[ 	c #F8F8F8",
"} 	c #D6D6D6",
"| 	c #3C3C3C",
"1 	c #414141",
"2 	c #959595",
"3 	c #BABABA",
"4 	c #B8B8B8",
"5 	c #B0B0B0",
"6 	c #6C6C6C",
"7 	c #151515",
"8 	c #D1D1D1",
"9 	c #E4E4E4",
"0 	c #F4F4F4",
"a 	c #B1B1B1",
"b 	c #0A0A0A",
"c 	c #010101",
"d 	c #646464",
"e 	c #9B9B9B",
"f 	c #949494",
"g 	c #979797",
"h 	c #9F9F9F",
"i 	c #A6A6A6",
"j 	c #A7A7A7",
"k 	c #737373",
"l 	c #2C2C2C",
"m 	c #C1C1C1",
"n 	c #030303",
"o 	c #050505",
"p 	c #4A4A4A",
"q 	c #7A7A7A",
"r 	c #767676",
"s 	c #858585",
"t 	c #9D9D9D",
"u 	c #B3B3B3",
"v 	c #C0C0C0",
"w 	c #C3C3C3",
"x 	c #2E2E2E",
"y 	c #373737",
"z 	c #787878",
"A 	c #A3A3A3",
"B 	c #D5D5D5",
"C 	c #F3F3F3",
"D 	c #E9E9E9",
"E 	c #191919",
"F 	c #626262",
"G 	c #797979",
"H 	c #DBDBDB",
"I 	c #E6E6E6",
"J 	c #E8E8E8",
"K 	c #E0E0E0",
"L 	c #515151",
"M 	c #717171",
"N 	c #9A9A9A",
"O 	c #616161",
"P 	c #404040",
"Q 	c #6B6B6B",
"R 	c #999999",
"S 	c #C7C7C7",
"T 	c #F6F6F6",
"U 	c #B5B5B5",
"V 	c #828282",
"W 	c #818181",
"X 	c #A4A4A4",
"Y 	c #D7D7D7",
"Z 	c #DDDDDD",
"` 	c #5A5A5A",
" .	c #878787",
"..	c #BDBDBD",
"+.	c #F7F7F7",
"@.	c #EDEDED",
"#.	c #B4B4B4",
"$.	c #ADADAD",
"%.	c #B6B6B6",
"&.	c #7B7B7B",
"*.	c #232323",
"=.	c #6D6D6D",
"-.	c #A5A5A5",
";.	c #D8D8D8",
">.	c #F9F9F9",
",.	c #E7E7E7",
"'.	c #CACACA",
").	c #BCBCBC",
"!.	c #CECECE",
"~.	c #EBEBEB",
"{.	c #2D2D2D",
"].	c #333333",
"^.	c #838383",
"/.	c #BFBFBF",
"(.	c #E5E5E5",
"_.	c #5F5F5F",
":.	c #989898",
"<.	c #090909",
"[.	c #464646",
"}.	c #A9A9A9",
"|.	c #DEDEDE",
"1.	c #F1F1F1",
"2.	c #101010",
"3.	c #B7B7B7",
"4.	c #444444",
"5.	c #A0A0A0",
"6.	c #EEEEEE",
"7.	c #141414",
"8.	c #4F4F4F",
"9.	c #ECECEC",
"0.	c #EAEAEA",
"a.	c #CBCBCB",
"b.	c #595959",
"c.	c #4E4E4E",
"d.	c #888888",
"e.	c #EFEFEF",
"f.	c #747474",
"g.	c #020202",
"h.	c #9C9C9C",
"i.	c #BBBBBB",
"j.	c #555555",
"k.	c #8B8B8B",
"l.	c #F0F0F0",
"m.	c #545454",
"n.	c #6E6E6E",
"o.	c #C2C2C2",
"p.	c #E2E2E2",
"q.	c #4C4C4C",
"r.	c #1D1D1D",
"s.	c #4D4D4D",
"t.	c #757575",
"u.	c #D9D9D9",
"v.	c #474747",
"w.	c #C5C5C5",
"x.	c #CDCDCD",
"y.	c #868686",
"z.	c #525252",
"A.	c #1E1E1E",
"B.	c #7D7D7D",
"C.	c #8E8E8E",
"D.	c #3E3E3E",
"E.	c #5E5E5E",
"F.	c #969696",
"G.	c #DADADA",
"H.	c #424242",
"I.	c #313131",
"J.	c #0B0B0B",
"K.	c #6A6A6A",
"L.	c #DCDCDC",
"M.	c #1C1C1C",
"N.	c #262626",
"O.	c #0C0C0C",
"P.	c #2A2A2A",
"Q.	c #7C7C7C",
"R.	c #484848",
"S.	c #666666",
"T.	c #8D8D8D",
"U.	c #5B5B5B",
"V.	c #ABABAB",
"W.	c #919191",
"X.	c #898989",
"Y.	c #C9C9C9",
"Z.	c #D4D4D4",
"] ] ] ] ] ] ] ] ] ] ] ] ] ] ] ] ] ] ] ] ] ] ] ] ] ] ] ] ] ] ] ] ",
"] + + + + + + + + + + + + + + + + + + + + + + + + + + + + + + ] ",
"] + ] ] ] ] ] ] ] ] ] ] ] ] ] ] ] ] ] ] ] ] ] ] ] ] ] ] ] ] + ] ",
"] + ] @ @ @ @ @ @ @ @ @ @ @ @ @ @ @ @ @ @ @ @ @ @ @ @ @ @ ] + ] ",
"] + ] @ @ @ @ @ @ @ @ @ @ @ @ Y + R y.y.+ - 1.@ @ @ @ @ @ ] + ] ",
"] + ] @ @ @ @ @ @ @ @ @ v j.( ] ] ( ( ] ] ] ( j.v 1.1.@ @ ] + ] ",
"] + ] @ @ @ @ @ @ @ Y 4.] ] ] 4.R v + + S.( ] ] 7 Y 9 1.@ ] + ] ",
"] + ] @ @ @ @ @ @ + ( ] ] ] S.R R R 5.5.5.r ] ] N.5.v 9 1.] + ] ",
"] + ] @ @ @ @ @ + ] ] ] ] q.W r W R + v v v N.] ].r 5.Y 1.] + ] ",
"] + ] @ @ @ @ 9 7 ] ] ] 7 S.S.W 5.v Y 9 9 9 W ] j.r R Y 1.] + ] ",
"] + ] @ @ @ @ S.] ] ] ] 4.j.S.R - 9 1.@ @ 1.+ ] W W 5.Y 1.] + ] ",
"] + ] @ @ @ Y ] ] ] ] ( q.j.y.v 9 1.@ @ @ @ 1.+ + R + 9 1.] + ] ",
"] + ] @ @ @ W ] ] ] ] N.q.r 5.Y 1.@ @ @ @ @ @ 9 - v - 9 @ ] + ] ",
"] + ] @ @ @ N.] ] ] ] ].j.W v 9 @ @ @ @ @ @ @ 1.9 Y 9 1.@ ] + ] ",
"] + ] @ @ 1.] ] ] ] ] 4.j.R Y 1.@ @ @ @ @ @ @ @ 1.1.1.@ @ ] + ] ",
"] + ] @ @ - ] ] ] ] ( q.S.+ Y 1.1.9 9 9 9 9 9 9 9 1.@ @ @ ] + ] ",
"] + ] @ @ v ] ] ] ] ( q.r + 9 @ 4.] ] ] ] ] ] ] ] 5.1.1.@ ] + ] ",
"] + ] @ @ v ] ] ] ] 7 q.W v 1.@ 9 - j.] ] ] ] q.R v Y 9 1.] + ] ",
"] + ] @ @ Y ] ] ] ] 7 j.y.- 1.@ @ 9 r ] ] ] ] r W R v Y 1.] + ] ",
"] + ] @ @ 1.( ] ] ] ( j.y.- 1.@ @ 1.q.] ] ] ( j.r R v 9 1.] + ] ",
"] + ] @ @ @ q.] ] ] ( j.y.- 1.@ @ 1.( ] ] ] 7 q.r + Y 1.@ ] + ] ",
"] + ] @ @ @ + ] ] ] ] q.y.v 1.@ @ - ] ] ] ] N.j.y.v 9 @ @ ] + ] ",
"] + ] @ @ @ 1.j.] ] ] 7 W v 9 @ @ y.] ] ] ] 4.j.R Y 1.@ @ ] + ] ",
"] + ] @ @ @ 1.Y 4.] ] ] ].R Y 1.1.].] ] ] ( q.S.5.Y 1.@ @ ] + ] ",
"] + ] @ @ @ @ 1.- r 7 ] ] ] 7 N.( ] ] ( N.4.j.W + 9 @ @ @ ] + ] ",
"] + ] @ @ @ @ 1.9 v R S.q.4.q.j.S.W y.W S.j.r R - 1.@ @ @ ] + ] ",
"] + ] @ @ @ @ @ 1.9 - + R y.y.R 5.5.R y.W y.5.v 9 1.@ @ @ ] + ] ",
"] + ] @ @ @ @ @ @ 1.1.Y - v + + + + + + + v Y 9 1.@ @ @ @ ] + ] ",
"] + ] @ @ @ @ @ @ @ @ 1.1.9 9 Y Y Y Y 9 9 1.1.@ @ @ @ @ @ ] + ] ",
"] + ] ] ] ] ] ] ] ] ] ] ] ] ] ] ] ] ] ] ] ] ] ] ] ] ] ] ] ] + ] ",
"] + + + + + + + + + + + + + + + + + + + + + + + + + + + + + + ] ",
"] ] ] ] ] ] ] ] ] ] ] ] ] ] ] ] ] ] ] ] ] ] ] ] ] ] ] ] ] ] ] ] "};
