/* XPM */
static char * gric48_xpm[] = {
"48 48 231 2",
"  	c None",
". 	c #030303",
"+ 	c #040404",
"@ 	c #B2B2B2",
"# 	c #FFFFFF",
"$ 	c #FEFEFE",
"% 	c #F0F0F0",
"& 	c #DDDDDD",
"* 	c #D2D2D2",
"= 	c #D1D1D1",
"- 	c #E6E6E6",
"; 	c #F8F8F8",
"> 	c #FAFAFA",
", 	c #FBFBFB",
"' 	c #FCFCFC",
") 	c #FDFDFD",
"! 	c #E2E2E2",
"~ 	c #9E9E9E",
"{ 	c #626262",
"] 	c #2F2F2F",
"^ 	c #181818",
"/ 	c #0F0F0F",
"( 	c #0A0A0A",
"_ 	c #141414",
": 	c #202020",
"< 	c #424242",
"[ 	c #797979",
"} 	c #BBBBBB",
"| 	c #E8E8E8",
"1 	c #F6F6F6",
"2 	c #B1B1B1",
"3 	c #4A4A4A",
"4 	c #0E0E0E",
"5 	c #000000",
"6 	c #101010",
"7 	c #1A1A1A",
"8 	c #161616",
"9 	c #010101",
"0 	c #232323",
"a 	c #868686",
"b 	c #E5E5E5",
"c 	c #F5F5F5",
"d 	c #C0C0C0",
"e 	c #393939",
"f 	c #262626",
"g 	c #767676",
"h 	c #C2C2C2",
"i 	c #BFBFBF",
"j 	c #BDBDBD",
"k 	c #ADADAD",
"l 	c #656565",
"m 	c #848484",
"n 	c #DBDBDB",
"o 	c #7E7E7E",
"p 	c #070707",
"q 	c #ABABAB",
"r 	c #A6A6A6",
"s 	c #A4A4A4",
"t 	c #A7A7A7",
"u 	c #A9A9A9",
"v 	c #878787",
"w 	c #131313",
"x 	c #8D8D8D",
"y 	c #CFCFCF",
"z 	c #E1E1E1",
"A 	c #F9F9F9",
"B 	c #F7F7F7",
"C 	c #5E5E5E",
"D 	c #020202",
"E 	c #6B6B6B",
"F 	c #9A9A9A",
"G 	c #919191",
"H 	c #8F8F8F",
"I 	c #959595",
"J 	c #9C9C9C",
"K 	c #A3A3A3",
"L 	c #777777",
"M 	c #0B0B0B",
"N 	c #808080",
"O 	c #9B9B9B",
"P 	c #B5B5B5",
"Q 	c #585858",
"R 	c #5A5A5A",
"S 	c #838383",
"T 	c #7A7A7A",
"U 	c #8C8C8C",
"V 	c #AAAAAA",
"W 	c #BCBCBC",
"X 	c #BEBEBE",
"Y 	c #BABABA",
"Z 	c #333333",
"` 	c #191919",
" .	c #6F6F6F",
"..	c #F1F1F1",
"+.	c #7F7F7F",
"@.	c #727272",
"#.	c #696969",
"$.	c #6A6A6A",
"%.	c #757575",
"&.	c #888888",
"*.	c #B3B3B3",
"=.	c #C4C4C4",
"-.	c #D0D0D0",
";.	c #D6D6D6",
">.	c #D8D8D8",
",.	c #D5D5D5",
"'.	c #CCCCCC",
").	c #2C2C2C",
"!.	c #747474",
"~.	c #929292",
"{.	c #B7B7B7",
"].	c #5B5B5B",
"^.	c #5D5D5D",
"/.	c #6C6C6C",
"(.	c #828282",
"_.	c #9F9F9F",
":.	c #B9B9B9",
"<.	c #CECECE",
"[.	c #DEDEDE",
"}.	c #E7E7E7",
"|.	c #ECECEC",
"1.	c #EDEDED",
"2.	c #EBEBEB",
"3.	c #E3E3E3",
"4.	c #0C0C0C",
"5.	c #D9D9D9",
"6.	c #2E2E2E",
"7.	c #555555",
"8.	c #545454",
"9.	c #7B7B7B",
"0.	c #D4D4D4",
"a.	c #F3F3F3",
"b.	c #E4E4E4",
"c.	c #1F1F1F",
"d.	c #7D7D7D",
"e.	c #999999",
"f.	c #DCDCDC",
"g.	c #F2F2F2",
"h.	c #4D4D4D",
"i.	c #575757",
"j.	c #707070",
"k.	c #B4B4B4",
"l.	c #D3D3D3",
"m.	c #636363",
"n.	c #323232",
"o.	c #A2A2A2",
"p.	c #8E8E8E",
"q.	c #C5C5C5",
"r.	c #F4F4F4",
"s.	c #383838",
"t.	c #484848",
"u.	c #4E4E4E",
"v.	c #616161",
"w.	c #A8A8A8",
"x.	c #CACACA",
"y.	c #EAEAEA",
"z.	c #A0A0A0",
"A.	c #C6C6C6",
"B.	c #060606",
"C.	c #303030",
"D.	c #464646",
"E.	c #717171",
"F.	c #989898",
"G.	c #B6B6B6",
"H.	c #EEEEEE",
"I.	c #050505",
"J.	c #3C3C3C",
"K.	c #494949",
"L.	c #5F5F5F",
"M.	c #CDCDCD",
"N.	c #D7D7D7",
"O.	c #343434",
"P.	c #414141",
"Q.	c #4F4F4F",
"R.	c #909090",
"S.	c #EFEFEF",
"T.	c #1C1C1C",
"U.	c #434343",
"V.	c #565656",
"W.	c #C8C8C8",
"X.	c #818181",
"Y.	c #DADADA",
"Z.	c #DFDFDF",
"`.	c #9D9D9D",
" +	c #373737",
".+	c #6D6D6D",
"++	c #737373",
"@+	c #111111",
"#+	c #3B3B3B",
"$+	c #515151",
"%+	c #151515",
"&+	c #0D0D0D",
"*+	c #787878",
"=+	c #CBCBCB",
"-+	c #E9E9E9",
";+	c #939393",
">+	c #B0B0B0",
",+	c #C9C9C9",
"'+	c #3E3E3E",
")+	c #898989",
"!+	c #949494",
"~+	c #E0E0E0",
"{+	c #646464",
"]+	c #3D3D3D",
"^+	c #5C5C5C",
"/+	c #404040",
"(+	c #535353",
"_+	c #676767",
":+	c #A1A1A1",
"<+	c #606060",
"[+	c #505050",
"}+	c #242424",
"|+	c #444444",
"1+	c #C1C1C1",
"2+	c #A5A5A5",
"3+	c #272727",
"4+	c #474747",
"5+	c #3A3A3A",
"6+	c #363636",
"7+	c #8A8A8A",
"8+	c #080808",
"9+	c #525252",
"0+	c #454545",
"a+	c #1D1D1D",
"b+	c #252525",
"c+	c #4B4B4B",
"d+	c #090909",
"e+	c #121212",
"f+	c #686868",
"g+	c #858585",
"h+	c #B8B8B8",
"5 5 5 5 5 5 5 5 5 5 5 5 5 5 5 5 5 5 5 5 5 5 5 5 5 5 5 5 5 5 5 5 5 5 5 5 5 5 5 5 5 5 5 5 5 5 5 5 ",
"5 @ @ @ @ @ @ @ @ @ @ @ @ @ @ @ @ @ @ @ @ @ @ @ @ @ @ @ @ @ @ @ @ @ @ @ @ @ @ @ @ @ @ @ @ @ @ 5 ",
"5 @ @ @ @ @ @ @ @ @ @ @ @ @ @ @ @ @ @ @ @ @ @ @ @ @ @ @ @ @ @ @ @ @ @ @ @ @ @ @ @ @ @ @ @ @ @ 5 ",
"5 @ @ 5 5 5 5 5 5 5 5 5 5 5 5 5 5 5 5 5 5 5 5 5 5 5 5 5 5 5 5 5 5 5 5 5 5 5 5 5 5 5 5 5 5 @ @ 5 ",
"5 @ @ 5 # # # # # # # # # # # # # # # # # # # # # # # # # # # # # # # # # # # # # # # # 5 @ @ 5 ",
"5 @ @ 5 # # # # # # # # # # # # # # # # # # # # # # # # # # # # # # # # # # # # # # # # 5 @ @ 5 ",
"5 @ @ 5 # # # # # # # # # # # # # # # # # # # # ..>.0.0.0.0.b ..# # # # # # # # # # # # 5 @ @ 5 ",
"5 @ @ 5 # # # # # # # # # # # # # # # # b z._+O.^ &+&+&+&+&+^ 3+'++.i b ....# # # # # # 5 @ @ 5 ",
"5 @ @ 5 # # # # # # # # # # # # # # @ h.&+5 5 5 5 5 &+^ ^ 5 5 5 5 5 5 3+x b ....# # # # 5 @ @ 5 ",
"5 @ @ 5 # # # # # # # # # # # # 1+O.5 5 5 5 5 3+@.@ 1+i i V _+&+5 5 5 5 5 N >.b ....# # 5 @ @ 5 ",
"5 @ @ 5 # # # # # # # # # # ..+.&+5 5 5 5 &+_+V V s s s s V V x ^ 5 5 5 5 x i '.b ..# # 5 @ @ 5 ",
"5 @ @ 5 # # # # # # # # # ..Q 5 5 5 5 5 5 _+e.x x x e.e.s s V s @.5 5 5 &+N e.@ '.b ..# 5 @ @ 5 ",
"5 @ @ 5 # # # # # # # # ..Q 5 5 5 5 5 5 Q N +.+.N x e.V @ i i i @ O.5 5 ^ @.N z.1+>...# 5 @ @ 5 ",
"5 @ @ 5 # # # # # # # # +.5 5 5 5 5 5 O.@._+_+@.x z.@ 1+0.0.>.0.'.N 5 5 )._+@.x @ >...# 5 @ @ 5 ",
"5 @ @ 5 # # # # # # # '.&+5 5 5 5 5 &+Q Q Q _+N z.i '.>.b ....b b i &+5 h.@.@.x @ >...# 5 @ @ 5 ",
"5 @ @ 5 # # # # # # ..O.5 5 5 5 5 5 ).7.7._++.e.i 0.b ....# # ....b ^ 5 @.+.+.e.i >...# 5 @ @ 5 ",
"5 @ @ 5 # # # # # # V 5 5 5 5 5 5 5 h.h.7.@.x @ 0.b ..# # # # # # .._+O.z.x x s 1+b ..# 5 @ @ 5 ",
"5 @ @ 5 # # # # # # O.5 5 5 5 5 5 ^ h.h._+N V '.b ..# # # # # # # ..b 0.@ z.z.@ '.b ..# 5 @ @ 5 ",
"5 @ @ 5 # # # # # 1+5 5 5 5 5 5 5 O.h.7.@.e.i >...# # # # # # # # # ..b '.i @ 1+>...# # 5 @ @ 5 ",
"5 @ @ 5 # # # # # +.5 5 5 5 5 5 5 '+h.Q N V '.b ..# # # # # # # # # ..b >.'.'.>.b ..# # 5 @ @ 5 ",
"5 @ @ 5 # # # # # O.5 5 5 5 5 5 &+'+h._+x i >...# # # # # # # # # # # ..b b b b ..# # # 5 @ @ 5 ",
"5 @ @ 5 # # # # ..5 5 5 5 5 5 5 ^ '+7.@.z.'.b ..# # # # # # # # # # # # ........# # # # 5 @ @ 5 ",
"5 @ @ 5 # # # # '.5 5 5 5 5 5 5 3+h.Q N V 0.b ..# # # # # # # # # # # # # # # # # # # # 5 @ @ 5 ",
"5 @ @ 5 # # # # @ 5 5 5 5 5 5 5 O.h._+x @ >...# ..b >.>.>.>.>.>.>.>.>.>.>.>...# # # # # 5 @ @ 5 ",
"5 @ @ 5 # # # # e.5 5 5 5 5 5 5 O.h.@.e.i b ..# @.5 5 5 5 5 5 5 5 5 5 5 5 &+0.......# # 5 @ @ 5 ",
"5 @ @ 5 # # # # e.5 5 5 5 5 5 5 '+7.@.e.1+b ..# x 7.'+^ 5 5 5 5 5 5 5 &+O._+>.b b ....# 5 @ @ 5 ",
"5 @ @ 5 # # # # z.5 5 5 5 5 5 5 '+7.@.s '.b ..# # ....V 5 5 5 5 5 5 &+e.@ @ i '.>.b ..# 5 @ @ 5 ",
"5 @ @ 5 # # # # i 5 5 5 5 5 5 5 '+Q +.V '.b ..# # ..b @ &+5 5 5 5 5 O.N x e.s @ '.b ..# 5 @ @ 5 ",
"5 @ @ 5 # # # # >.5 5 5 5 5 5 5 '+Q N V 0...# # # ..b x 5 5 5 5 5 5 '+_+@.N e.@ '.b ..# 5 @ @ 5 ",
"5 @ @ 5 # # # # ..^ 5 5 5 5 5 5 '+Q N V 0...# # # ....Q 5 5 5 5 5 5 '+7._+N z.i >.b ..# 5 @ @ 5 ",
"5 @ @ 5 # # # # # _+5 5 5 5 5 5 O.Q N V 0...# # # # ..3+5 5 5 5 5 &+'+h._+x @ 0.b ..# # 5 @ @ 5 ",
"5 @ @ 5 # # # # # @ 5 5 5 5 5 5 3+Q +.V 0...# # # # b 5 5 5 5 5 5 ^ '+7.@.e.1+b ..# # # 5 @ @ 5 ",
"5 @ @ 5 # # # # # ..'+5 5 5 5 5 &+7.+.s '.b ..# # # s 5 5 5 5 5 5 3+h.Q +.V '.b ..# # # 5 @ @ 5 ",
"5 @ @ 5 # # # # # ..i &+5 5 5 5 5 '+@.z.1+b ..# # # _+5 5 5 5 5 5 O.h._+x @ >...# # # # 5 @ @ 5 ",
"5 @ @ 5 # # # # # ..b x 5 5 5 5 5 &+Q e.i >...# # ..O.5 5 5 5 5 5 '+h._+e.i >...# # # # 5 @ @ 5 ",
"5 @ @ 5 # # # # # # ..>.N &+5 5 5 5 &+7.s '.b ....e.5 5 5 5 5 5 ^ '+7.@.z.1+b ..# # # # 5 @ @ 5 ",
"5 @ @ 5 # # # # # # ..b '.e.'+5 5 5 5 5 5 3+O.'+^ 5 5 5 5 5 &+3+'+h._+N V 0.b ..# # # # 5 @ @ 5 ",
"5 @ @ 5 # # # # # # # ..b 1+s @.'+^ &+5 5 5 5 5 5 &+&+3+'+Q Q 7.h.Q @.x i >...# # # # # 5 @ @ 5 ",
"5 @ @ 5 # # # # # # # ....>.1+s x +._+Q Q _+@.N x z.V V e.+._+Q _+@.x s '.b ..# # # # # 5 @ @ 5 ",
"5 @ @ 5 # # # # # # # # ....>.'.@ z.x N N x e.z.s V s e.x N +.+.N x V 1+>.....# # # # # 5 @ @ 5 ",
"5 @ @ 5 # # # # # # # # # ....b 0.1+@ s z.e.z.z.s s s z.e.e.e.z.V @ '.>.b ..# # # # # # 5 @ @ 5 ",
"5 @ @ 5 # # # # # # # # # # ....b b 0.'.1+i i @ i i i i @ i i 1+'.>.b ....# # # # # # # 5 @ @ 5 ",
"5 @ @ 5 # # # # # # # # # # # # ......b b >.>.>.0.0.0.>.>.>.b b b ....# # # # # # # # # 5 @ @ 5 ",
"5 @ @ 5 # # # # # # # # # # # # # # # # # # # # # # # # # # # # # # # # # # # # # # # # 5 @ @ 5 ",
"5 @ @ 5 5 5 5 5 5 5 5 5 5 5 5 5 5 5 5 5 5 5 5 5 5 5 5 5 5 5 5 5 5 5 5 5 5 5 5 5 5 5 5 5 5 @ @ 5 ",
"5 @ @ @ @ @ @ @ @ @ @ @ @ @ @ @ @ @ @ @ @ @ @ @ @ @ @ @ @ @ @ @ @ @ @ @ @ @ @ @ @ @ @ @ @ @ @ 5 ",
"5 @ @ @ @ @ @ @ @ @ @ @ @ @ @ @ @ @ @ @ @ @ @ @ @ @ @ @ @ @ @ @ @ @ @ @ @ @ @ @ @ @ @ @ @ @ @ 5 ",
"5 5 5 5 5 5 5 5 5 5 5 5 5 5 5 5 5 5 5 5 5 5 5 5 5 5 5 5 5 5 5 5 5 5 5 5 5 5 5 5 5 5 5 5 5 5 5 5 "};
