/* XPM */
static char * gric24_xpm[] = {
"24 24 22 1",
" 	c None",
".	c #040404",
"+	c #C0C0C0",
"@	c #000000",
"#	c #FFFFFF",
"$	c #D7D7D7",
"%	c #868686",
"&	c #555555",
"*	c #424242",
"=	c #292929",
"-	c #666666",
";	c #999999",
">	c #E3E3E3",
",	c #F1F1F1",
"'	c #4D4D4D",
")	c #A0A0A4",
"!	c #B2B2B2",
"~	c #777777",
"{	c #0C0C0C",
"]	c #CCCCCC",
"^	c #161616",
"/	c #333333",
"........................",
".++++++++++++++++++++++.",
".+@@@@@@@@@@@@@@@@@@@@+.",
".+@##################@+.",
".+@######$%&*=*-;>,##@+.",
".+@####$'..-)!~{.*$,#@+.",
".+@###]{.{%))!!%.'!$#@+.",
".+@##>^..&%%!]$]{&;]#@+.",
".+@##-..{-~!$,,,-;)]#@+.",
".+@#,{../-%],###>]+$#@+.",
".+@#!...*~!>####,>>,#@+.",
".+@#%...'%+,####,,,##@+.",
".+@#-..{&%$+^.{^^=>,#@+.",
".+@#~..{&;$,,'..'!+>#@+.",
".+@#;..{-)>,,=..'%!$#@+.",
".+@#$...&)>,>...&%+>#@+.",
".+@#,~../;$,)..^&%$,#@+.",
".+@##>-../%)/../-)>##@+.",
".+@##,$;&*/'&~~-%+>##@+.",
".+@###,$!))!!!;;!$,##@+.",
".+@####,>$]]]]]$>,###@+.",
".+@@@@@@@@@@@@@@@@@@@@+.",
".++++++++++++++++++++++.",
"........................"};
