/* XPM */
static char * gric16_xpm[] = {
"16 16 24 1",
" 	c None",
".	c #040404",
"+	c #FFFFFF",
"@	c #C0C0C0",
"#	c #868686",
"$	c #555555",
"%	c #4D4D4D",
"&	c #666666",
"*	c #999999",
"=	c #F1F1F1",
"-	c #A0A0A4",
";	c #B2B2B2",
">	c #DDDDDD",
",	c #333333",
"'	c #777777",
")	c #CCCCCC",
"!	c #D7D7D7",
"~	c #292929",
"{	c #5F5F5F",
"]	c #E3E3E3",
"^	c #1C1C1C",
"/	c #222222",
"(	c #393939",
"_	c #0C0C0C",
"................",
".++++++++++++++.",
".+++++@#$%&*=++.",
".+++=%.$-;&.&>+.",
".++=,.,'-)!~{@+.",
".++#..%#]++**@+.",
".++~.^&)+++=!]+.",
".++../#]=====++.",
".++..~*=#^.^#]+.",
".++..,;==,.,#)+.",
".++(.~-==..,*]+.",
".++@_.#];..$@=+.",
".++=@(/,((%#!++.",
".+++=!;-;--)=++.",
".++++++++++++++.",
"................"};
