/* XPM */
static char * gric32lc_xpm[] = {
"32 32 5 1",
" 	c None",
".	c #040404",
"+	c #C0C0C0",
"@	c #FFFFFF",
"#	c #868686",
"................................",
".++++++++++++++++++++++++++++++.",
".+............................+.",
".+.@@@@@@@@@@@@@@@@@@@@@@@@@@.+.",
".+.@@@@@@@@@@@@++###++@@@@@@@.+.",
".+.@@@@@@@@@+#.........#+@@@@.+.",
".+.@@@@@@@+.....#+++#....+@@@.+.",
".+.@@@@@@+....####+++#...++@@.+.",
".+.@@@@@+....#####++++...#++@.+.",
".+.@@@@@.....###+++@@@#.###+@.+.",
".+.@@@@#.....###+@@@@@+.##++@.+.",
".+.@@@+.....###+@@@@@@@++#+@@.+.",
".+.@@@#.....##++@@@@@@@@+++@@.+.",
".+.@@@......##+@@@@@@@@@@+@@@.+.",
".+.@@@......##+@@@@@@@@@@@@@@.+.",
".+.@@+.....##++@@@@@@@@@@@@@@.+.",
".+.@@+.....##+@@.........+@@@.+.",
".+.@@+.....##+@@@+#....##++@@.+.",
".+.@@+.....##+@@@@#....###++@.+.",
".+.@@@.....##+@@@@#....###+@@.+.",
".+.@@@#....##+@@@@.....##++@@.+.",
".+.@@@+....##+@@@+.....##+@@@.+.",
".+.@@@@#....#+@@@#.....##+@@@.+.",
".+.@@@@+.....#+@@.....##++@@@.+.",
".+.@@@@@+#............##+@@@@.+.",
".+.@@@@@@+###.##########+@@@@.+.",
".+.@@@@@@@++####++####++@@@@@.+.",
".+.@@@@@@@@++++++++++++@@@@@@.+.",
".+.@@@@@@@@@@@@++++@@@@@@@@@@.+.",
".+............................+.",
".++++++++++++++++++++++++++++++.",
"................................"};
