/* XPM */
static char * gric12_xpm[] = {
"12 12 46 1",
" 	c None",
".	c #000000",
"+	c #FFFFFF",
"@	c #C1C1C1",
"#	c #9B9B9B",
"$	c #9C9C9C",
"%	c #C4C4C4",
"&	c #DCDCDC",
"*	c #3F3F3F",
"=	c #2E2E2E",
"-	c #7C7C7C",
";	c #717171",
">	c #0A0A0A",
",	c #999999",
"'	c #EFEFEF",
")	c #1D1D1D",
"!	c #111111",
"~	c #707070",
"{	c #B5B5B5",
"]	c #5D5D5D",
"^	c #E1E1E1",
"/	c #828282",
"(	c #303030",
"_	c #9E9E9E",
":	c #F5F5F5",
"<	c #FEFEFE",
"[	c #DEDEDE",
"}	c #B6B6B6",
"|	c #F6F6F6",
"1	c #3A3A3A",
"2	c #4E4E4E",
"3	c #D3D3D3",
"4	c #F7F7F7",
"5	c #F4F4F4",
"6	c #292929",
"7	c #696969",
"8	c #E8E8E8",
"9	c #8C8C8C",
"0	c #161616",
"a	c #989898",
"b	c #4F4F4F",
"c	c #6F6F6F",
"d	c #EDEDED",
"e	c #C9C9C9",
"f	c #282828",
"g	c #C0C0C0",
"............",
".++++g//g++.",
".++g..//./+.",
".++../gg//+.",
".+/..g++gg+.",
".+../g+++++.",
".+../+/../+.",
".+/./+g../+.",
".+g..+/..g+.",
".++g/////++.",
".++++ggg+++.",
"............"};
